<?xml version="1.0" encoding="UTF-8" standalone="no"?>
<!-- Created with Inkscape (http://www.inkscape.org/) -->

<svg
   xmlns:dc="http://purl.org/dc/elements/1.1/"
   xmlns:cc="http://creativecommons.org/ns#"
   xmlns:rdf="http://www.w3.org/1999/02/22-rdf-syntax-ns#"
   xmlns:svg="http://www.w3.org/2000/svg"
   xmlns="http://www.w3.org/2000/svg"
   xmlns:sodipodi="http://sodipodi.sourceforge.net/DTD/sodipodi-0.dtd"
   xmlns:inkscape="http://www.inkscape.org/namespaces/inkscape"
   width="210mm"
   height="297mm"
   viewBox="0 0 210 297"
   version="1.1"
   id="svg4804"
   inkscape:version="0.92.4 (5da689c313, 2019-01-14)"
   sodipodi:docname="personajes.svg">
  <defs
     id="defs4798" />
  <sodipodi:namedview
     id="base"
     pagecolor="#ffffff"
     bordercolor="#666666"
     borderopacity="1.0"
     inkscape:pageopacity="0.0"
     inkscape:pageshadow="2"
     inkscape:zoom="3.959798"
     inkscape:cx="173.71538"
     inkscape:cy="106.94277"
     inkscape:document-units="mm"
     inkscape:current-layer="layer1"
     showgrid="true"
     inkscape:snap-global="false"
     inkscape:window-width="1920"
     inkscape:window-height="1017"
     inkscape:window-x="-8"
     inkscape:window-y="-8"
     inkscape:window-maximized="1">
    <inkscape:grid
       type="xygrid"
       id="grid5349"
       spacingx="4.2333333"
       spacingy="4.2333333"
       empspacing="4" />
  </sodipodi:namedview>
  <metadata
     id="metadata4801">
    <rdf:RDF>
      <cc:Work
         rdf:about="">
        <dc:format>image/svg+xml</dc:format>
        <dc:type
           rdf:resource="http://purl.org/dc/dcmitype/StillImage" />
        <dc:title></dc:title>
      </cc:Work>
    </rdf:RDF>
  </metadata>
  <g
     inkscape:label="Layer 1"
     inkscape:groupmode="layer"
     id="layer1">
    <path
       style="fill:#1a1a1a;stroke:#000000;stroke-width:0.26458332px;stroke-linecap:butt;stroke-linejoin:miter;stroke-opacity:1;fill-opacity:1"
       d="m 27.646128,273.13259 c 0.428711,-0.15011 0.782966,-0.79077 0.802532,-1.1917 0.0087,-0.36885 0.03376,-0.77112 -0.238964,-1.06221 -0.34104,-0.24171 -0.532509,-0.53827 -0.42683,-0.97612 -0.01193,-0.86275 -0.0032,-1.72575 0.02864,-2.5868 -0.01133,-0.42302 -0.211229,-0.61193 -0.258759,-1.03296 -0.213238,-0.32341 -0.412617,-0.57641 -0.728388,-0.78602 -0.374724,-0.11863 -0.806202,-0.25857 -1.214397,-0.32627 -0.553722,-0.0555 -1.020866,-0.0109 -1.576502,0.0101 -0.518166,0.17891 -1.002118,0.34646 -1.49409,0.5815 -0.352541,0.38669 -0.363759,0.57767 -0.598301,0.90492 -0.292399,0.54145 -0.276844,0.74056 -0.401473,1.3335 -0.152838,0.51409 -0.0673,1.4686 -0.296726,1.94584 -0.309685,0.47118 -0.736123,0.59114 -0.960666,1.31114 -0.05535,0.58912 -0.0135,1.01878 0.367284,1.44358 0.384639,0.33183 1.101195,0.47105 1.605532,0.43763 z"
       id="path5383"
       inkscape:connector-curvature="0"
       sodipodi:nodetypes="ccccccccccccccccc" />
    <path
       style="fill:#deaa87;stroke:#000000;stroke-width:0.26458332px;stroke-linecap:butt;stroke-linejoin:miter;stroke-opacity:1"
       d="m 23.018588,266.93217 c 0.63259,-0.25806 1.326055,-0.30264 2.001215,-0.26953 0.448415,-0.008 0.97805,0.0454 1.259225,0.44365 0.236993,0.29586 0.634045,0.49035 0.715884,0.88912 0.176284,0.74232 0.227168,1.51931 0.11816,2.27583 -0.05059,0.35609 -0.286603,0.63405 -0.534749,0.87532 -0.176732,0.24307 -0.449417,0.40079 -0.752221,0.40254 -0.328178,0.0167 -0.657931,0.0287 -0.985961,0.0242 -0.680872,-0.0469 -1.358629,-0.32267 -1.823201,-0.83259 -0.231146,-0.233 -0.470875,-0.46575 -0.659887,-0.7335 -0.144004,-0.35059 -0.203028,-0.73173 -0.232684,-1.10722 -0.01436,-0.33706 0.187597,-0.61942 0.42833,-0.83159 0.223556,-0.26587 0.355748,-0.59204 0.536344,-0.88529 0.03224,-0.0531 -0.0019,-0.12637 -0.07051,-0.11687"
       id="path5367"
       inkscape:connector-curvature="0" />
    <path
       style="fill:#483737;stroke:#000000;stroke-width:0.26458332px;stroke-linecap:butt;stroke-linejoin:miter;stroke-opacity:1"
       d="m 23.970736,269.37102 c 1.14e-4,-0.22524 -1.59e-4,-0.45065 7e-6,-0.67579 0.01356,-0.0594 0.05731,-0.10405 0.05971,-0.16544 0.04252,-0.0258 0.02813,-0.10345 0.06069,-0.14885 0.03708,-0.0483 0.06392,-0.10791 0.109453,-0.14633 0.05125,0.006 0.103665,0.0492 0.09325,0.10543 0.01599,0.0622 0.04781,0.12304 0.04707,0.18924 0.01225,0.0569 0.0215,0.11908 0.01402,0.18096 -1.51e-4,0.15346 2.5e-4,0.30693 8e-6,0.4604 -0.02938,0.0249 -0.0071,0.0709 -0.04335,0.0916 -0.0049,0.047 -0.01509,0.075 -0.06275,0.0923 -0.01406,0.0378 -0.0099,0.0821 -0.05425,0.0965 -0.04521,0.0243 -0.08147,0.0666 -0.135923,0.0545 -0.03496,-0.006 -0.05224,-0.0494 -0.02187,-0.0597 -0.01627,-0.03 -0.03967,-0.0533 -0.06607,-0.0748 z"
       id="path5373"
       inkscape:connector-curvature="0" />
    <path
       style="fill:#483737;stroke:#000000;stroke-width:0.26458332px;stroke-linecap:butt;stroke-linejoin:miter;stroke-opacity:1"
       d="m 25.440718,269.40441 c -5.53e-4,-0.33269 0.0011,-0.66538 -8.44e-4,-0.99807 -0.01767,-0.0736 0.05682,-0.12656 0.08181,-0.18588 0.05854,-0.0282 0.150853,-0.0394 0.19346,0.0229 0.0083,0.0754 0.122677,0.085 0.111161,0.16586 -0.0166,0.0553 0.0286,0.10633 0.01374,0.16176 0.02237,0.073 0.02246,0.14649 0.01828,0.22205 -1.04e-4,0.11468 1.11e-4,0.22935 -4e-6,0.34403 -0.04311,0.055 0.01087,0.14382 -0.04788,0.18803 -0.0072,0.0396 0.0103,0.10756 -0.03405,0.0992 -0.02144,0.0244 -0.01682,0.0593 -0.06258,0.0481 -0.02967,0.004 -0.02126,0.0351 -0.06341,0.0321 -0.04664,0.002 -0.09101,0.0248 -0.141368,0.0166 -0.02834,0 -0.05667,0 -0.08501,0 -0.0026,-0.0394 7.23e-4,-0.0802 0.0167,-0.11676 z"
       id="path5375"
       inkscape:connector-curvature="0" />
    <path
       style="fill:none;stroke:#000000;stroke-width:0.26458332px;stroke-linecap:butt;stroke-linejoin:miter;stroke-opacity:1"
       d="m 23.503014,270.03917 c 0.120553,0.0582 0.155477,0.20508 0.264107,0.27923 0.08985,0.0777 0.178621,0.1539 0.287151,0.19767 0.05977,0.0565 0.139971,0.10215 0.220603,0.11348 0.103397,0.0336 0.211723,0.0219 0.316798,0.0445 0.244038,-6.9e-4 0.488085,-9e-5 0.732126,-2.9e-4 0.08907,-0.0189 0.179755,-0.0356 0.266711,-0.0538 0.116101,-0.004 0.214598,-0.0695 0.308825,-0.12481 0.06348,-0.082 0.127333,-0.1577 0.165573,-0.25723 0.07037,-0.0648 0.09588,-0.19514 0.140956,-0.24691 0.02967,-0.0767 0.03883,-0.13847 0.08679,-0.21903"
       id="path5377"
       inkscape:connector-curvature="0" />
    <path
       style="fill:#1a1a1a;stroke:#000000;stroke-width:0.26458332px;stroke-linecap:butt;stroke-linejoin:miter;stroke-opacity:1"
       d="m 27.367868,266.12459 c 0.08605,0.22904 0.259414,0.4387 0.259331,0.6869 0.01354,0.26912 -0.01597,0.65966 -0.148665,0.87808 -0.0994,0.23888 -0.174429,0.35139 -0.250368,0.58873 -0.09913,0.27692 -0.362603,0.0712 -0.560513,0.0592 -0.219576,-0.0405 -0.423197,-0.13468 -0.609732,-0.25323 -0.393972,-0.1763 -0.735174,-0.45956 -0.975664,-0.81874 -0.174858,-0.12108 -0.19523,-0.57437 -0.448728,-0.48737 -0.221294,0.21749 -0.368034,0.49401 -0.533894,0.75364 -0.348152,0.51887 -0.946438,0.78089 -1.514893,0.98242 -0.169037,0.0315 -0.484293,0.18815 -0.502209,-0.081 -0.09465,-0.22745 -0.111039,-0.47686 -0.137923,-0.71842 0.01004,-0.26427 -0.0327,-0.53861 0.08432,-0.78696 0.08055,-0.19404 0.184106,-0.37306 0.261814,-0.56805 0.08037,-0.0671 0.135811,-0.15321 0.210608,-0.22375"
       id="path5381"
       inkscape:connector-curvature="0"
       sodipodi:nodetypes="ccccccccccccccc" />
    <path
       style="fill:#ff8080;stroke:#000000;stroke-width:0.26458332px;stroke-linecap:butt;stroke-linejoin:miter;stroke-opacity:1"
       d="m 23.21904,273.02927 c 0.01674,0.13145 0.05375,0.29507 -0.03907,0.40316 -0.111541,0.12664 -0.146937,0.30413 -0.23256,0.44473 -0.0056,0.17605 -0.08075,0.4331 0.127683,0.52084 0.112725,0.0879 0.207545,0.19752 0.356745,0.23104 0.136713,0.0583 0.27404,0.11166 0.425739,0.10132 0.160728,0.0791 0.34557,0.0436 0.522674,0.0872 0.292537,0.0533 0.590696,0.025 0.886235,0.0321 0.369888,0 0.739777,0 1.109666,0 0.146132,-0.11314 0.384534,-0.14393 0.43426,-0.3507 0.04298,-0.16123 -0.01074,-0.33584 0.03518,-0.49287 -0.0049,-0.15847 -1.33e-4,-0.31724 -0.0018,-0.47592 -0.05137,-0.0984 -0.145214,-0.14675 -0.217119,-0.1841"
       id="path5414"
       inkscape:connector-curvature="0" />
    <path
       style="fill:#ff8080;stroke:#000000;stroke-width:0.26458332px;stroke-linecap:butt;stroke-linejoin:miter;stroke-opacity:1"
       d="m 23.041372,273.97498 c -0.07264,0.1637 -0.203446,0.65075 -0.269088,0.81702 -0.05628,0.12175 -0.04482,0.25613 -0.07369,0.38158 -0.01826,0.0922 -0.0187,0.17651 -0.04967,0.26442 -0.02203,0.091 -0.09839,0.14609 -0.111786,0.2523 -0.02391,0.12231 -0.0756,0.23773 -0.07886,0.36403 -0.02005,0.13131 -0.02309,0.25958 0.07721,0.35508 0.07605,0.12344 0.247543,0.0377 0.335324,0.13042 0.104596,-0.0202 0.20329,0.0292 0.309103,0.0139 0.141082,-0.002 0.282216,0.001 0.423327,-2.2e-4 0.08929,-0.0827 0.239357,-0.0314 0.320012,-0.13243 0.06941,-0.0748 0.151444,-0.14926 0.183898,-0.24822 0.01089,-0.12094 0.0822,-0.22973 0.09755,-0.34211 0.0727,-0.0881 0.08977,-0.20685 0.146092,-0.31031 0.01864,-0.0943 0.07824,-0.20462 0.105784,-0.28687 l 0.0058,-0.002 0.328317,-0.63583"
       id="path5416"
       inkscape:connector-curvature="0"
       sodipodi:nodetypes="ccccccccccccccccc" />
    <path
       style="fill:#ff8080;stroke:#000000;stroke-width:0.26458332px;stroke-linecap:butt;stroke-linejoin:miter;stroke-opacity:1"
       d="m 25.122639,274.58864 c 0.01494,0.12044 0.3662,0.84034 0.439,0.94442 0.07171,0.11915 0.09385,0.25923 0.162827,0.37994 0.06283,0.0966 0.103599,0.20545 0.182709,0.29171 0.06582,0.0873 0.153499,0.15319 0.243172,0.21437 0.07289,0.0539 0.14924,0.10168 0.237735,0.1249 0.09338,0.021 0.180675,0.0631 0.274695,0.0804 0.154372,-0.007 0.310042,-0.003 0.465026,-0.004 0.07462,-0.053 0.173872,-0.13038 0.191338,-0.21307 0.0223,-0.10115 0.0024,-0.20772 0.0091,-0.31149 -0.0044,-0.12597 0.01314,-0.25392 -0.01732,-0.37715 -0.01888,-0.0987 -0.05037,-0.19493 -0.105119,-0.27993 -0.05176,-0.0974 -0.06956,-0.21503 -0.140971,-0.29518 -0.03119,-0.083 -0.06048,-0.16578 -0.122703,-0.23255 -0.03917,-0.0961 -0.192042,-0.59097 -0.219149,-0.672"
       id="path5418"
       inkscape:connector-curvature="0"
       sodipodi:nodetypes="ccccccccccccccc" />
    <path
       style="fill:#6f8a91;stroke:#000000;stroke-width:0.26458332px;stroke-linecap:butt;stroke-linejoin:miter;stroke-opacity:1"
       d="m 23.352675,271.25861 c -0.118509,0.0118 -0.24897,-0.0294 -0.356215,0.0333 -0.135528,0.0826 -0.273116,0.16402 -0.402541,0.25372 -0.09828,0.10122 -0.219338,0.17123 -0.322613,0.26088 -0.114361,0.0463 -0.198095,0.17477 -0.312535,0.23962 -0.07181,0.11353 -0.18081,0.17466 -0.271325,0.26003 -0.110846,0.0924 -0.206528,0.1979 -0.300121,0.30669 -0.05311,0.0416 -0.112833,0.11535 -0.120413,0.14952 -0.08595,0.0824 -0.188747,0.19161 -0.1195,0.31719 0.08781,0.10217 0.09664,0.23167 0.21897,0.30532 0.144418,0.0764 0.308695,0.0616 0.4678,0.0778 0.132902,0.003 0.267295,0.008 0.394783,-0.0362 0.137607,-0.0181 0.262385,-0.0768 0.379484,-0.14883 0.117279,-0.0571 0.240005,-0.10556 0.364828,-0.14327 0.09422,-0.0303 0.140778,-0.15222 0.246004,-0.17129 0.09365,-0.0931 0.238761,-0.11475 0.317694,-0.22315 0.102085,-0.0845 0.152574,-0.20388 0.204339,-0.31913 0.02146,-0.15795 0.0089,-0.31837 0.01227,-0.47739 -0.05765,-0.0864 -0.08502,-0.22582 -0.134785,-0.27848 -0.0658,-0.0612 -0.12594,-0.18131 -0.175113,-0.27784 -0.02959,-0.0432 -0.04526,-0.0981 -0.09101,-0.12845 z"
       id="path5420"
       inkscape:connector-curvature="0" />
    <path
       style="fill:#6f8a91;stroke:#000000;stroke-width:0.26458332px;stroke-linecap:butt;stroke-linejoin:miter;stroke-opacity:1"
       d="m 26.877293,273.1462 c -0.169785,-0.0775 -0.288408,-0.22389 -0.42366,-0.3462 -0.112869,-0.11777 -0.212766,-0.24747 -0.307151,-0.38033 -0.05714,-0.12652 -0.174975,-0.22575 -0.167537,-0.37535 -0.0099,-0.13329 3.79e-4,-0.26757 -0.0037,-0.40132 0.09718,-0.0448 0.122471,-0.19237 0.228714,-0.20597 0.08173,-0.1145 0.233037,-0.0691 0.351571,-0.0779 0.112818,1e-5 0.225636,-3.3e-4 0.338454,-3e-5 0.138208,0.0434 0.296589,0.0544 0.386277,0.18731 0.09076,0.0668 0.153209,0.16175 0.238381,0.23387 0.04396,0.10189 0.18201,0.12623 0.222327,0.23712 0.05314,0.0872 0.133561,0.15788 0.204533,0.23211 0.08001,0.0703 0.152798,0.16708 0.195397,0.25882 0.02783,0.0388 0.101375,0.0234 0.09344,0.10566 0.04343,0.0991 0.121222,0.19229 0.133148,0.311 0.01444,0.10846 0.04692,0.25062 -0.06195,0.32262 -0.06785,0.0181 -0.09974,0.11124 -0.175224,0.0952 -0.106527,0.0827 -0.248694,0.0571 -0.371874,0.0869 -0.176821,2.3e-4 -0.353779,2.5e-4 -0.530698,2.8e-4 -0.09738,-0.0773 -0.21357,-0.15229 -0.284861,-0.2508 -0.02064,-0.0133 -0.04369,-0.0222 -0.06561,-0.0329 z"
       id="path5422"
       inkscape:connector-curvature="0" />
    <path
       style="fill:#6f8a91;stroke:#000000;stroke-width:0.26458332px;stroke-linecap:butt;stroke-linejoin:miter;stroke-opacity:1"
       d="m 23.386083,271.39223 c -0.203392,0.0582 -0.193697,0.30323 -0.310834,0.43967 -0.121984,0.20449 -0.160698,0.44557 -0.229991,0.67024 -0.02873,0.21011 0.005,0.49001 0.116814,0.67676 0.08675,0.16118 -0.233485,0.50095 -0.07562,0.59554 0.158125,0.0926 0.57988,0.1298 0.757996,0.17401 0.166484,0.0582 0.50292,0.004 0.673159,0.0553 0.285172,0.0142 0.603366,0.0955 0.889677,0.0802 0.253438,-0.005 0.522228,0.0738 0.773364,0.0442 0.152205,-0.0678 0.720618,-0.12853 0.864609,-0.21734 0.168422,-0.0784 -0.01529,-0.49657 0.09482,-0.65258 0.156469,-0.24367 0.06199,-0.39596 0.07107,-0.67467 -0.01174,-0.18286 -0.05766,-0.36217 -0.148895,-0.52313 -0.08182,-0.16941 -0.19433,-0.33317 -0.335531,-0.4591 -0.130602,-0.12138 -0.308824,-0.12734 -0.447681,-0.0254 -0.265786,0.0329 -0.535919,0.0108 -0.803546,0.0172 -0.22578,0.009 -0.445602,-0.0544 -0.671834,-0.0326 -0.230257,0.0179 -0.437621,-0.11042 -0.666153,-0.11579 -0.178736,-0.0392 -0.378653,-0.11068 -0.551428,-0.0525 z"
       id="path5410"
       inkscape:connector-curvature="0"
       sodipodi:nodetypes="cccccccccccccccccccc" />
    <path
       style="fill:#c83737;stroke:#000000;stroke-width:0.26458332px;stroke-linecap:butt;stroke-linejoin:miter;stroke-opacity:1"
       d="m 22.751318,270.62385 c -0.168485,0.0718 -0.123309,0.26877 -0.217145,0.38411 -0.0085,0.12257 -0.03546,0.24112 -0.06682,0.35072 0.0038,0.14392 -0.0082,0.30185 0.0074,0.43504 0.109324,0.0791 0.187764,0.20463 0.32249,0.17831 0.107089,0.069 0.212432,0.10277 0.35496,0.15494 0.16048,0.0306 0.26978,0.0878 0.444493,0.0995 0.14286,0.0443 0.303271,0.06 0.457539,0.10095 0.129094,9.2e-4 0.256391,0.0252 0.386671,0.0167 0.137355,0.004 0.277141,-0.0158 0.407821,0.0357 0.194215,0.0288 0.393332,0.008 0.589798,0.0144 0.267994,0 0.535987,0 0.80398,0 0.111139,-9.6e-4 0.209594,-0.0656 0.284487,-0.116 0.0837,-0.0289 0.134603,-0.0975 0.216609,-0.1512 0.04452,-0.0704 0.143234,-0.0911 0.18372,-0.1503 0.06517,-0.11901 0.171344,-0.26294 0.201549,-0.40335 -0.0023,-0.21072 -5.98e-4,-0.42152 -0.0011,-0.63223 -0.08632,-0.0711 -0.09149,-0.14952 -0.160234,-0.2082 -0.0022,-0.0131 -0.117393,-0.0608 -0.124316,0.0409 -0.03258,0.12081 -0.157012,0.19016 -0.190239,0.28821 -0.105888,0.091 -0.187793,0.14786 -0.267739,0.24709 -0.07357,0.0307 -0.07548,0.0994 -0.142274,0.105 -0.112474,0.0315 -0.190117,0.0944 -0.291303,0.12861 -0.165975,0.0211 -0.321658,0.0904 -0.493083,0.0998 -0.08595,-0.0206 -0.145467,0.0462 -0.229051,0.0334 -0.118914,-1.5e-4 -0.237895,2.1e-4 -0.356749,0 -0.166677,-0.0335 -0.312494,-0.0987 -0.48443,-0.1169 -0.142478,0.0101 -0.209003,-0.11399 -0.350796,-0.0835 -0.0577,-0.0627 -0.173757,-0.07 -0.252457,-0.11499 -0.03823,-0.0525 -0.164353,-0.1067 -0.242038,-0.12928 -0.04114,-0.0644 -0.134634,-0.13118 -0.233091,-0.13796 -0.04265,-0.0817 -0.119246,-0.0917 -0.183205,-0.1685 -0.02688,-0.0708 -0.109296,-0.0874 -0.141589,-0.15067 -0.0533,-0.0747 -0.14171,-0.101 -0.233839,-0.15024 z"
       id="path5385"
       inkscape:connector-curvature="0" />
  </g>
</svg>
