<?xml version="1.0" encoding="UTF-8" standalone="no"?>
<!-- Created with Inkscape (http://www.inkscape.org/) -->

<svg
   xmlns:dc="http://purl.org/dc/elements/1.1/"
   xmlns:cc="http://creativecommons.org/ns#"
   xmlns:rdf="http://www.w3.org/1999/02/22-rdf-syntax-ns#"
   xmlns:svg="http://www.w3.org/2000/svg"
   xmlns="http://www.w3.org/2000/svg"
   xmlns:sodipodi="http://sodipodi.sourceforge.net/DTD/sodipodi-0.dtd"
   xmlns:inkscape="http://www.inkscape.org/namespaces/inkscape"
   width="210mm"
   height="297mm"
   viewBox="0 0 210 297"
   version="1.1"
   id="svg4804"
   inkscape:version="0.92.4 (5da689c313, 2019-01-14)"
   sodipodi:docname="personajes.svg"
   inkscape:export-filename="C:\Users\gtw\Downloads\sara.png"
   inkscape:export-xdpi="360"
   inkscape:export-ydpi="360">
  <defs
     id="defs4798" />
  <sodipodi:namedview
     id="base"
     pagecolor="#ffffff"
     bordercolor="#666666"
     borderopacity="1.0"
     inkscape:pageopacity="0.0"
     inkscape:pageshadow="2"
     inkscape:zoom="0.35"
     inkscape:cx="8.1747667"
     inkscape:cy="435.28673"
     inkscape:document-units="mm"
     inkscape:current-layer="layer1"
     showgrid="true"
     inkscape:snap-global="false"
     inkscape:window-width="1920"
     inkscape:window-height="1017"
     inkscape:window-x="-8"
     inkscape:window-y="-8"
     inkscape:window-maximized="1">
    <inkscape:grid
       type="xygrid"
       id="grid5349"
       spacingx="4.2333333"
       spacingy="4.2333333"
       empspacing="4" />
  </sodipodi:namedview>
  <metadata
     id="metadata4801">
    <rdf:RDF>
      <cc:Work
         rdf:about="">
        <dc:format>image/svg+xml</dc:format>
        <dc:type
           rdf:resource="http://purl.org/dc/dcmitype/StillImage" />
        <dc:title></dc:title>
      </cc:Work>
    </rdf:RDF>
  </metadata>
  <g
     inkscape:label="Layer 1"
     inkscape:groupmode="layer"
     id="layer1">
    <g
       id="g6030"
       transform="matrix(0.96880688,0,0,0.99735672,1.5534732,0.92744428)"
       style="stroke-width:1.01731658">
      <path
         sodipodi:nodetypes="ccccccccccccccccc"
         inkscape:connector-curvature="0"
         id="path5383"
         d="m 30.993183,274.66228 c 0.869957,-0.21846 2.155788,-0.63114 2.195492,-1.21465 0.01766,-0.53681 0.163004,-1.64199 -0.39042,-2.06563 -0.692052,-0.35178 -1.411317,-0.78339 -1.196869,-1.42062 -0.02421,-1.25563 -0.337229,-2.51162 -0.272609,-3.76477 -0.02299,-0.61565 -0.428634,-0.89059 -0.525084,-1.50335 -0.43271,-0.47068 -0.837298,-0.83889 -1.478072,-1.14395 -0.760404,-0.17265 -1.635975,-0.37632 -2.464299,-0.47485 -1.123634,-0.0808 -2.07158,-0.0159 -3.199097,0.0147 -1.051482,0.26038 -2.033535,0.50423 -3.031863,0.8463 -0.715389,0.56278 -0.738153,0.84073 -1.214095,1.317 -0.593347,0.78802 -0.561782,1.0778 -0.814684,1.94075 -0.310144,0.74819 -0.136567,2.13736 -0.602127,2.83193 -0.628424,0.68574 -1.493768,0.86033 -1.949419,1.9082 -0.112318,0.85739 -0.0274,1.48271 0.745306,2.10095 0.780524,0.48294 2.234586,0.68555 3.258005,0.63692 z"
         style="fill:#1a1a1a;fill-opacity:1;stroke:#000000;stroke-width:0.26916501px;stroke-linecap:butt;stroke-linejoin:miter;stroke-opacity:1" />
      <path
         inkscape:connector-curvature="0"
         id="path5367"
         d="m 21.602807,265.63834 c 1.283675,-0.37557 2.69088,-0.44045 4.06094,-0.39227 0.90994,-0.0116 1.984695,0.0661 2.555266,0.64568 0.480915,0.43059 1.286628,0.71364 1.452699,1.294 0.357722,1.08036 0.460977,2.21117 0.239774,3.31219 -0.102659,0.51825 -0.581585,0.92278 -1.085132,1.27392 -0.358631,0.35376 -0.911974,0.5833 -1.526435,0.58585 -0.665951,0.0243 -1.335098,0.0418 -2.000749,0.0352 -1.381651,-0.0683 -2.75698,-0.46961 -3.699707,-1.21173 -0.46905,-0.3391 -0.955517,-0.67784 -1.339067,-1.06752 -0.292219,-0.51024 -0.411992,-1.06494 -0.472171,-1.61142 -0.02914,-0.49055 0.380678,-0.90149 0.869183,-1.21028 0.453648,-0.38694 0.721897,-0.86164 1.088369,-1.28843 0.06542,-0.0773 -0.0039,-0.18391 -0.143082,-0.17009"
         style="fill:#deaa87;stroke:#000000;stroke-width:0.26916501px;stroke-linecap:butt;stroke-linejoin:miter;stroke-opacity:1" />
      <path
         inkscape:connector-curvature="0"
         id="path5373"
         d="m 23.534941,269.18778 c 2.32e-4,-0.3278 -3.22e-4,-0.65586 1.4e-5,-0.98352 0.02752,-0.0864 0.116296,-0.15144 0.121166,-0.24078 0.08628,-0.0376 0.05708,-0.15056 0.123155,-0.21663 0.07524,-0.0703 0.129708,-0.15705 0.222106,-0.21297 0.103998,0.009 0.210361,0.0716 0.189226,0.15344 0.03245,0.0905 0.09702,0.17907 0.09552,0.27542 0.02486,0.0828 0.04363,0.1733 0.02845,0.26336 -3.06e-4,0.22334 5.07e-4,0.4467 1.6e-5,0.67006 -0.05962,0.0362 -0.01441,0.10318 -0.08797,0.13331 -0.0099,0.0684 -0.03062,0.10915 -0.127335,0.13433 -0.02853,0.055 -0.02009,0.11949 -0.110086,0.14044 -0.09174,0.0354 -0.165322,0.0969 -0.27582,0.0793 -0.07094,-0.009 -0.106007,-0.0719 -0.04438,-0.0869 -0.03302,-0.0437 -0.0805,-0.0776 -0.134072,-0.10887 z"
         style="fill:#483737;stroke:#000000;stroke-width:0.26916501px;stroke-linecap:butt;stroke-linejoin:miter;stroke-opacity:1" />
      <path
         inkscape:connector-curvature="0"
         id="path5375"
         d="m 26.517883,269.23638 c -0.0011,-0.48419 0.0022,-0.96838 -0.0017,-1.45257 -0.03586,-0.10711 0.115301,-0.18419 0.166012,-0.27052 0.118791,-0.041 0.306116,-0.0573 0.392576,0.0333 0.01684,0.10973 0.248941,0.1237 0.225572,0.24138 -0.03368,0.0805 0.05804,0.15475 0.02788,0.23543 0.04539,0.10624 0.04558,0.21319 0.03709,0.32316 -2.11e-4,0.1669 2.25e-4,0.33379 -8e-6,0.50069 -0.08748,0.08 0.02206,0.20932 -0.09716,0.27366 -0.01461,0.0576 0.0209,0.15654 -0.0691,0.14437 -0.04351,0.0355 -0.03413,0.0863 -0.126989,0.07 -0.06021,0.006 -0.04314,0.0511 -0.128674,0.0467 -0.09464,0.003 -0.184681,0.0361 -0.286869,0.0242 -0.05751,0 -0.114997,0 -0.172506,0 -0.0053,-0.0573 0.0015,-0.11672 0.03389,-0.16993 z"
         style="fill:#483737;stroke:#000000;stroke-width:0.26916501px;stroke-linecap:butt;stroke-linejoin:miter;stroke-opacity:1" />
      <path
         inkscape:connector-curvature="0"
         id="path5377"
         d="m 22.585822,270.16019 c 0.244631,0.0847 0.3155,0.29847 0.535936,0.40639 0.182327,0.11308 0.362464,0.22398 0.582698,0.28768 0.121287,0.0822 0.284034,0.14867 0.447655,0.16516 0.209817,0.0489 0.429637,0.0319 0.642859,0.0648 0.495211,-0.001 0.99044,-1.3e-4 1.485657,-4.2e-4 0.180744,-0.0275 0.364766,-0.0518 0.54122,-0.0783 0.235596,-0.006 0.43547,-0.10115 0.626679,-0.18164 0.128816,-0.11934 0.258389,-0.22952 0.335987,-0.37437 0.142797,-0.0943 0.194563,-0.284 0.286033,-0.35935 0.06021,-0.11162 0.07879,-0.20152 0.176118,-0.31877"
         style="fill:none;stroke:#000000;stroke-width:0.26916501px;stroke-linecap:butt;stroke-linejoin:miter;stroke-opacity:1" />
      <path
         sodipodi:nodetypes="ccccccccccccccc"
         inkscape:connector-curvature="0"
         id="path5381"
         d="m 30.428528,264.46301 c 0.174616,0.33334 0.526412,0.63847 0.526244,0.9997 0.02748,0.39167 -0.03241,0.96005 -0.301677,1.27793 -0.201706,0.34766 -0.353957,0.51141 -0.508056,0.85683 -0.201158,0.40302 -0.735807,0.10362 -1.137413,0.0862 -0.445572,-0.0589 -0.858768,-0.19601 -1.237291,-0.36854 -0.799463,-0.25658 -1.491843,-0.66883 -1.979854,-1.19158 -0.354828,-0.17621 -0.396168,-0.83592 -0.910576,-0.7093 -0.449058,0.31653 -0.746828,0.71897 -1.083397,1.09683 -0.706483,0.75515 -1.920547,1.13649 -3.074077,1.42979 -0.343017,0.0458 -0.982746,0.27383 -1.019102,-0.11789 -0.192067,-0.33102 -0.225324,-0.69401 -0.279878,-1.04557 0.02037,-0.38461 -0.06636,-0.78388 0.171105,-1.14532 0.163455,-0.2824 0.373595,-0.54294 0.531283,-0.82673 0.16309,-0.0977 0.275593,-0.22298 0.427374,-0.32564"
         style="fill:#1a1a1a;stroke:#000000;stroke-width:0.26916501px;stroke-linecap:butt;stroke-linejoin:miter;stroke-opacity:1" />
      <path
         inkscape:connector-curvature="0"
         id="path5414"
         d="m 22.009572,274.51191 c 0.03397,0.19131 0.109071,0.42944 -0.07928,0.58675 -0.226343,0.18431 -0.29817,0.44263 -0.471919,0.64725 -0.01136,0.25622 -0.163861,0.63033 0.259099,0.75802 0.228746,0.12793 0.421158,0.28747 0.72392,0.33625 0.277423,0.0849 0.556092,0.16251 0.863926,0.14746 0.326155,0.11512 0.701243,0.0634 1.060629,0.12691 0.593627,0.0776 1.198663,0.0364 1.798381,0.0467 0.750591,0 1.501183,0 2.251776,0 0.296536,-0.16466 0.780311,-0.20948 0.881216,-0.5104 0.08722,-0.23465 -0.02179,-0.48878 0.07139,-0.71732 -0.0099,-0.23063 -2.7e-4,-0.4617 -0.0037,-0.69264 -0.104242,-0.14321 -0.294673,-0.21357 -0.440586,-0.26793"
         style="fill:#ff8080;stroke:#000000;stroke-width:0.26916501px;stroke-linecap:butt;stroke-linejoin:miter;stroke-opacity:1" />
      <path
         sodipodi:nodetypes="ccccccccccccccccc"
         inkscape:connector-curvature="0"
         id="path5416"
         d="m 21.649041,275.88828 c -0.147404,0.23824 -0.41284,0.94708 -0.546043,1.18907 -0.114206,0.17719 -0.09095,0.37276 -0.149535,0.55534 -0.03705,0.13419 -0.03795,0.25689 -0.100792,0.38483 -0.0447,0.13244 -0.199657,0.21262 -0.22684,0.36719 -0.04852,0.17801 -0.153411,0.34599 -0.160026,0.5298 -0.04069,0.19111 -0.04686,0.37779 0.156678,0.51678 0.154323,0.17965 0.502323,0.0549 0.680452,0.18981 0.21225,-0.0294 0.412523,0.0425 0.627243,0.0202 0.286289,-0.003 0.572683,10e-4 0.859031,-3.2e-4 0.18119,-0.12036 0.485712,-0.0457 0.64938,-0.19274 0.140849,-0.10886 0.307316,-0.21723 0.373173,-0.36125 0.0221,-0.17601 0.166803,-0.33434 0.197952,-0.4979 0.147525,-0.12822 0.182164,-0.30104 0.296455,-0.45162 0.03782,-0.13724 0.158768,-0.2978 0.214661,-0.4175 l 0.01177,-0.003 0.666234,-0.92537"
         style="fill:#ff8080;stroke:#000000;stroke-width:0.26916501px;stroke-linecap:butt;stroke-linejoin:miter;stroke-opacity:1" />
      <path
         sodipodi:nodetypes="ccccccccccccccc"
         inkscape:connector-curvature="0"
         id="path5418"
         d="m 25.872426,276.78138 c 0.03032,0.17529 0.743106,1.22301 0.890835,1.37449 0.145516,0.17341 0.190444,0.37728 0.330414,0.55296 0.127497,0.14059 0.210227,0.299 0.37076,0.42454 0.133565,0.12706 0.311486,0.22295 0.493454,0.31199 0.147911,0.0785 0.302843,0.14799 0.482421,0.18178 0.18949,0.0306 0.366632,0.0918 0.557421,0.11701 0.313257,-0.0102 0.629149,-0.004 0.943648,-0.006 0.151422,-0.0771 0.352828,-0.18975 0.38827,-0.3101 0.04525,-0.14721 0.0049,-0.30231 0.01847,-0.45333 -0.0089,-0.18334 0.02666,-0.36955 -0.03515,-0.5489 -0.03831,-0.14364 -0.102213,-0.28369 -0.213312,-0.4074 -0.105033,-0.14175 -0.141153,-0.31295 -0.286063,-0.4296 -0.06329,-0.12079 -0.122728,-0.24127 -0.248994,-0.33845 -0.07948,-0.13986 -0.389698,-0.86008 -0.444705,-0.97801"
         style="fill:#ff8080;stroke:#000000;stroke-width:0.26916501px;stroke-linecap:butt;stroke-linejoin:miter;stroke-opacity:1" />
      <path
         inkscape:connector-curvature="0"
         id="path5420"
         d="m 22.280749,271.93494 c -0.240483,0.0172 -0.505219,-0.0428 -0.722845,0.0485 -0.275018,0.12022 -0.554217,0.23871 -0.816851,0.36926 -0.199434,0.14731 -0.445089,0.2492 -0.654658,0.37968 -0.232066,0.0674 -0.401982,0.25435 -0.634208,0.34874 -0.14572,0.16522 -0.366906,0.25419 -0.550583,0.37844 -0.224933,0.13447 -0.419094,0.28802 -0.609017,0.44635 -0.107772,0.0605 -0.228964,0.16787 -0.244346,0.2176 -0.174413,0.11993 -0.383012,0.27887 -0.242494,0.46164 0.178187,0.14869 0.196106,0.33716 0.444342,0.44435 0.293059,0.11119 0.626416,0.0897 0.949277,0.11323 0.26969,0.004 0.542405,0.0116 0.801109,-0.0527 0.279237,-0.0263 0.532441,-0.11177 0.770063,-0.2166 0.237987,-0.0831 0.487027,-0.15363 0.740322,-0.20851 0.191195,-0.0441 0.285672,-0.22154 0.499201,-0.24929 0.190038,-0.1355 0.484502,-0.16701 0.644676,-0.32477 0.207155,-0.12298 0.309609,-0.29672 0.414653,-0.46445 0.04355,-0.22988 0.01806,-0.46335 0.0249,-0.69479 -0.116985,-0.12574 -0.172525,-0.32865 -0.27351,-0.40529 -0.133524,-0.0891 -0.255563,-0.26387 -0.355346,-0.40436 -0.06004,-0.0629 -0.09184,-0.14277 -0.184681,-0.18694 z"
         style="fill:#6f8a91;stroke:#000000;stroke-width:0.26916501px;stroke-linecap:butt;stroke-linejoin:miter;stroke-opacity:1" />
      <path
         inkscape:connector-curvature="0"
         id="path5422"
         d="m 29.433035,274.68209 c -0.344534,-0.11279 -0.585248,-0.32584 -0.859707,-0.50385 -0.229038,-0.1714 -0.431753,-0.36016 -0.623282,-0.55352 -0.115951,-0.18414 -0.355066,-0.32855 -0.339972,-0.54628 -0.02009,-0.19399 7.69e-4,-0.38941 -0.0075,-0.58407 0.197202,-0.0652 0.248523,-0.27997 0.464115,-0.29976 0.16585,-0.16664 0.472888,-0.10057 0.713421,-0.11338 0.228935,2e-5 0.457869,-4.8e-4 0.686804,-4e-5 0.280457,0.0632 0.601849,0.0792 0.783847,0.27261 0.184174,0.0972 0.310898,0.2354 0.483732,0.34036 0.08921,0.14829 0.369342,0.18372 0.451154,0.3451 0.107834,0.12691 0.271027,0.22978 0.415046,0.33781 0.162359,0.10231 0.310064,0.24316 0.396507,0.37668 0.05647,0.0565 0.205714,0.0341 0.189612,0.15378 0.08813,0.14422 0.245988,0.27985 0.270189,0.45262 0.0293,0.15785 0.09521,0.36474 -0.125711,0.46953 -0.137684,0.0263 -0.202396,0.1619 -0.355571,0.13855 -0.216169,0.12036 -0.50466,0.0831 -0.754621,0.12647 -0.358812,3.4e-4 -0.717901,3.7e-4 -1.076912,4.1e-4 -0.197607,-0.1125 -0.433384,-0.22164 -0.578051,-0.36501 -0.04188,-0.0193 -0.08866,-0.0323 -0.133138,-0.0479 z"
         style="fill:#6f8a91;stroke:#000000;stroke-width:0.26916501px;stroke-linecap:butt;stroke-linejoin:miter;stroke-opacity:1" />
      <path
         sodipodi:nodetypes="cccccccccccccccccccc"
         inkscape:connector-curvature="0"
         id="path5410"
         d="m 22.348542,272.12941 c -0.412731,0.0847 -0.393058,0.44131 -0.630756,0.63988 -0.247535,0.29761 -0.326095,0.64847 -0.466707,0.97545 -0.0583,0.30579 0.01015,0.71315 0.237044,0.98494 0.176036,0.23458 -0.473797,0.72907 -0.153451,0.86674 0.320873,0.13476 1.176714,0.1889 1.538153,0.25325 0.337836,0.0847 1.020544,0.006 1.366,0.0805 0.578681,0.0207 1.224372,0.13899 1.805365,0.11672 0.514286,-0.007 1.059725,0.10741 1.569339,0.0643 0.30886,-0.0987 1.462305,-0.18706 1.754497,-0.31631 0.341768,-0.11411 -0.03103,-0.7227 0.192412,-0.94975 0.317513,-0.35463 0.125793,-0.57627 0.144218,-0.9819 -0.02382,-0.26613 -0.117006,-0.5271 -0.302143,-0.76135 -0.166032,-0.24656 -0.394342,-0.48489 -0.680872,-0.66817 -0.265022,-0.17665 -0.626677,-0.18532 -0.908451,-0.037 -0.539343,0.0479 -1.087507,0.0157 -1.630585,0.025 -0.458162,0.0131 -0.904232,-0.0792 -1.363311,-0.0474 -0.467246,0.026 -0.888037,-0.16071 -1.351782,-0.16852 -0.362698,-0.0571 -0.768377,-0.16108 -1.118979,-0.0764 z"
         style="fill:#6f8a91;stroke:#000000;stroke-width:0.26916501px;stroke-linecap:butt;stroke-linejoin:miter;stroke-opacity:1" />
      <path
         inkscape:connector-curvature="0"
         id="path5385"
         d="m 21.060453,271.01112 c -0.341896,0.1045 -0.250223,0.39116 -0.440639,0.55903 -0.01725,0.17838 -0.07196,0.35092 -0.135594,0.51043 0.0077,0.20946 -0.01664,0.4393 0.01502,0.63314 0.221844,0.11512 0.381018,0.29782 0.654409,0.25951 0.217309,0.10042 0.431074,0.14957 0.720298,0.2255 0.325652,0.0445 0.547447,0.12778 0.901981,0.14481 0.289897,0.0645 0.615409,0.0873 0.928455,0.14692 0.261963,0.001 0.520279,0.0367 0.784648,0.0243 0.278726,0.006 0.562384,-0.023 0.827565,0.052 0.394109,0.0419 0.798164,0.0116 1.19684,0.021 0.543824,0 1.087645,0 1.631466,0 0.225528,-10e-4 0.425316,-0.0955 0.577292,-0.16883 0.169847,-0.0421 0.273141,-0.1419 0.439551,-0.22005 0.09034,-0.10246 0.290656,-0.13258 0.372811,-0.21874 0.132246,-0.17321 0.347698,-0.38268 0.408991,-0.58703 -0.0047,-0.30667 -0.0012,-0.61347 -0.0022,-0.92013 -0.175164,-0.10348 -0.185655,-0.21761 -0.325153,-0.30301 -0.0045,-0.0191 -0.238218,-0.0885 -0.252266,0.0595 -0.06611,0.17582 -0.318615,0.27675 -0.38604,0.41945 -0.214872,0.13244 -0.381077,0.21519 -0.543306,0.35961 -0.149291,0.0447 -0.153167,0.14466 -0.288708,0.15281 -0.228237,0.0458 -0.385793,0.13739 -0.591123,0.18718 -0.336803,0.0307 -0.65272,0.13156 -1.000582,0.14525 -0.174413,-0.03 -0.295187,0.0672 -0.464799,0.0486 -0.241305,-2.1e-4 -0.482746,3.1e-4 -0.723928,0 -0.338228,-0.0488 -0.634125,-0.14364 -0.983024,-0.17013 -0.289122,0.0147 -0.424117,-0.1659 -0.711848,-0.12152 -0.117087,-0.0913 -0.352594,-0.10188 -0.512295,-0.16736 -0.07758,-0.0764 -0.333512,-0.15529 -0.491153,-0.18815 -0.08348,-0.0937 -0.273204,-0.19091 -0.472997,-0.20078 -0.08655,-0.11891 -0.241978,-0.13346 -0.371766,-0.24523 -0.05455,-0.10304 -0.221788,-0.1272 -0.287318,-0.21928 -0.108158,-0.10872 -0.287563,-0.147 -0.474515,-0.21866 z"
         style="fill:#c83737;stroke:#000000;stroke-width:0.26916501px;stroke-linecap:butt;stroke-linejoin:miter;stroke-opacity:1" />
    </g>
  </g>
</svg>
